# xmcd
# Copyright (C) 1995-1998 Ti Kan
#
# Track frame offsets:
#       150
#       20511
#       37091
#       55282
#       69746
#       83265
#       95524
#       110550
#
# Disc length: 1970 seconds
#
# Revision: 0
# Processed by: cddbd v1.5.2PL0 Copyright (c) Steve Scherf et al.
# Submitted via: CD-Import v1.0
#
DISCID=6407b008
DTITLE=Kokolo - Heavy Hustling
DYEAR=2009
DGENRE=
TTITLE0=Soul Power
TTITLE1=The Grunt
TTITLE2=Please, Please, Please
TTITLE3=Think
TTITLE4=It's A New Day
TTITLE5=Bring It Up
TTITLE6=The Popcorn
TTITLE7=Mind Power
EXTD=
EXTT0=
EXTT1=
EXTT2=
EXTT3=
EXTT4=
EXTT5=
EXTT6=
EXTT7=
PLAYORDER=
